<svg width="1584" height="396" viewBox="0 0 1584 396" fill="none" xmlns="http://www.w3.org/2000/svg">
<rect width="1584" height="396" fill="#F5F5F5"/>
<g id="Awesome banner" clip-path="url(#clip0_0_1)">
<rect width="1584" height="396" fill="url(#paint0_linear_0_1)"/>
<ellipse id="Ellipse 2" cx="323" cy="64" rx="285" ry="288" fill="url(#paint1_linear_0_1)" fill-opacity="0.1"/>
<g id="copyright">
<path d="M75.95 334.52L72.30 334.52L72.30 311.16L77.20 311.16L83.70 330.04Q83.60 329.02 83.50 327.62Q83.41 326.23 83.33 324.79Q83.25 323.35 83.25 322.23L83.25 311.16L86.90 311.16L86.90 334.52L82 334.52L75.57 315.64Q75.63 316.57 75.73 317.88Q75.82 319.19 75.89 320.57Q75.95 321.94 75.95 323.10L75.95 334.52M98.80 334.84Q96.46 334.84 94.67 333.96Q92.88 333.08 91.89 331.53Q90.90 329.98 90.90 327.93Q90.90 325.78 92.13 324.18Q93.36 322.58 95.34 322.17L95.34 322.10Q93.65 321.75 92.61 320.38Q91.57 319 91.57 317.11Q91.57 315.26 92.48 313.85Q93.39 312.44 95.02 311.64Q96.66 310.84 98.80 310.84Q100.94 310.84 102.59 311.64Q104.24 312.44 105.15 313.85Q106.06 315.26 106.06 317.11Q106.06 319 105.01 320.38Q103.95 321.75 102.26 322.10L102.26 322.17Q104.24 322.58 105.47 324.18Q106.70 325.78 106.70 327.93Q106.70 329.98 105.71 331.53Q104.72 333.08 102.93 333.96Q101.14 334.84 98.80 334.84M98.80 320.73Q100.30 320.73 101.23 319.82Q102.16 318.90 102.16 317.46Q102.16 315.99 101.23 315.08Q100.30 314.17 98.80 314.17Q97.30 314.17 96.37 315.08Q95.44 315.99 95.44 317.46Q95.44 318.90 96.37 319.82Q97.30 320.73 98.80 320.73M98.80 331.45Q100.56 331.45 101.68 330.42Q102.80 329.40 102.80 327.74Q102.80 326.04 101.68 325Q100.56 323.96 98.80 323.96Q97.04 323.96 95.92 325Q94.80 326.04 94.80 327.74Q94.80 329.40 95.92 330.42Q97.04 331.45 98.80 331.45M114.35 334.52L110.70 334.52L110.70 311.16L115.60 311.16L122.10 330.04Q122 329.02 121.90 327.62Q121.81 326.23 121.73 324.79Q121.65 323.35 121.65 322.23L121.65 311.16L125.30 311.16L125.30 334.52L120.40 334.52L113.97 315.64Q114.03 316.57 114.13 317.88Q114.22 319.19 114.29 320.57Q114.35 321.94 114.35 323.10" fill="white" fill-opacity="0.9"/>
<path d="M161.48 325.24L151.24 325.24L151.24 322.68L161.48 322.68" fill="white" fill-opacity="0.9"/>
<path d="M195.02 334.84Q191.82 334.84 189.96 333.05Q188.11 331.26 188.11 328.12L188.11 317.56Q188.11 314.42 189.96 312.63Q191.82 310.84 195.02 310.84Q198.15 310.84 200.01 312.65Q201.87 314.46 201.87 317.56L198.99 317.56Q198.99 315.58 197.95 314.50Q196.91 313.43 195.02 313.43Q193.13 313.43 192.06 314.50Q190.99 315.58 190.99 317.56L190.99 328.12Q190.99 330.10 192.06 331.18Q193.13 332.25 195.02 332.25Q196.91 332.25 197.95 331.18Q198.99 330.10 198.99 328.12L201.87 328.12Q201.87 331.22 200.01 333.03Q198.15 334.84 195.02 334.84" fill="white" fill-opacity="0.9"/>
<path d="M213.96 334.84Q210.83 334.84 209 333.02Q207.18 331.19 207.18 327.80L207.18 317.88Q207.18 314.49 209 312.66Q210.83 310.84 213.96 310.84Q217.10 310.84 218.92 312.66Q220.75 314.49 220.75 317.85L220.75 327.80Q220.75 331.19 218.92 333.02Q217.10 334.84 213.96 334.84M213.96 332.25Q215.85 332.25 216.86 331.18Q217.87 330.10 217.87 328.12L217.87 317.56Q217.87 315.58 216.86 314.50Q215.85 313.43 213.96 313.43Q212.11 313.43 211.08 314.50Q210.06 315.58 210.06 317.56L210.06 328.12Q210.06 330.10 211.08 331.18Q212.11 332.25 213.96 332.25" fill="white" fill-opacity="0.9"/>
<path d="M228.65 334.52L225.87 334.52L225.87 311.16L230.12 311.16L233.10 321.27L236.20 311.16L240.46 311.16L240.46 334.52L237.67 334.52L237.67 323.48Q237.67 321.91 237.72 319.88Q237.77 317.85 237.87 315.77Q237.96 313.69 238.09 312.02L234.31 324.09L231.82 324.09L228.20 312.31Q228.46 314.68 228.55 317.50Q228.65 320.31 228.65 323.48" fill="white" fill-opacity="0.9"/>
<path d="M247.85 334.52L245.07 334.52L245.07 311.16L249.32 311.16L252.30 321.27L255.40 311.16L259.66 311.16L259.66 334.52L256.87 334.52L256.87 323.48Q256.87 321.91 256.92 319.88Q256.97 317.85 257.07 315.77Q257.16 313.69 257.29 312.02L253.51 324.09L251.02 324.09L247.40 312.31Q247.66 314.68 247.75 317.50Q247.85 320.31 247.85 323.48" fill="white" fill-opacity="0.9"/>
<path d="M271.56 334.84Q268.30 334.84 266.57 333.03Q264.84 331.22 264.84 328.12L264.84 311.16L267.72 311.16L267.72 328.12Q267.72 330.04 268.67 331.16Q269.61 332.28 271.56 332.28Q273.48 332.28 274.44 331.16Q275.40 330.04 275.40 328.12L275.40 311.16L278.28 311.16L278.28 328.12Q278.28 331.26 276.57 333.05Q274.86 334.84 271.56 334.84" fill="white" fill-opacity="0.9"/>
<path d="M286.83 334.52L284.04 334.52L284.04 311.16L287.88 311.16L295.02 331.16Q294.95 330.36 294.87 329.19Q294.79 328.02 294.75 326.73Q294.70 325.43 294.70 324.28L294.70 311.16L297.48 311.16L297.48 334.52L293.64 334.52L286.54 314.52Q286.60 315.29 286.67 316.46Q286.73 317.62 286.78 318.92Q286.83 320.22 286.83 321.40" fill="white" fill-opacity="0.9"/>
<path d="M316.20 334.52L303.72 334.52L303.72 331.90L308.49 331.90L308.49 313.78L303.72 313.78L303.72 311.16L316.20 311.16L316.20 313.78L311.43 313.78L311.43 331.90L316.20 331.90" fill="white" fill-opacity="0.9"/>
<path d="M330.60 334.52L327.72 334.52L327.72 313.78L321.32 313.78L321.32 311.16L337 311.16L337 313.78L330.60 313.78" fill="white" fill-opacity="0.9"/>
<path d="M349.80 334.52L346.92 334.52L346.92 325.78L339.88 311.16L342.95 311.16L347.50 320.76Q347.88 321.56 348.11 322.12Q348.33 322.68 348.39 322.94Q348.46 322.68 348.70 322.12Q348.94 321.56 349.32 320.76L353.87 311.16L356.84 311.16L349.80 325.78" fill="white" fill-opacity="0.9"/>
<path d="M382.83 334.52L380.04 334.52L380.04 311.16L383.88 311.16L391.02 331.16Q390.95 330.36 390.87 329.19Q390.79 328.02 390.75 326.73Q390.70 325.43 390.70 324.28L390.70 311.16L393.48 311.16L393.48 334.52L389.64 334.52L382.54 314.52Q382.60 315.29 382.67 316.46Q382.73 317.62 382.78 318.92Q382.83 320.22 382.83 321.40" fill="white" fill-opacity="0.9"/>
<path d="M405.96 334.84Q402.83 334.84 401 333.02Q399.18 331.19 399.18 327.80L399.18 317.88Q399.18 314.49 401 312.66Q402.83 310.84 405.96 310.84Q409.10 310.84 410.92 312.66Q412.75 314.49 412.75 317.85L412.75 327.80Q412.75 331.19 410.92 333.02Q409.10 334.84 405.96 334.84M405.96 332.25Q407.85 332.25 408.86 331.18Q409.87 330.10 409.87 328.12L409.87 317.56Q409.87 315.58 408.86 314.50Q407.85 313.43 405.96 313.43Q404.11 313.43 403.08 314.50Q402.06 315.58 402.06 317.56L402.06 328.12Q402.06 330.10 403.08 331.18Q404.11 332.25 405.96 332.25" fill="white" fill-opacity="0.9"/>
<path d="M424.55 334.52L418.51 334.52L418.51 311.16L424.55 311.16Q426.83 311.16 428.47 312.02Q430.12 312.89 431.03 314.46Q431.95 316.02 431.95 318.17L431.95 327.48Q431.95 329.62 431.03 331.21Q430.12 332.79 428.47 333.66Q426.83 334.52 424.55 334.52M421.39 313.72L421.39 331.96L424.55 331.96Q426.67 331.96 427.87 330.78Q429.07 329.59 429.07 327.48L429.07 318.17Q429.07 316.09 427.87 314.90Q426.67 313.72 424.55 313.72" fill="white" fill-opacity="0.9"/>
<path d="M451.40 334.52L437.96 334.52L437.96 311.16L451.40 311.16L451.40 313.78L440.81 313.78L440.81 321.02L450.28 321.02L450.28 323.58L440.81 323.58L440.81 331.90L451.40 331.90" fill="white" fill-opacity="0.9"/>
<path d="M463.69 334.84Q460.30 334.84 458.28 333.05Q456.27 331.26 456.27 328.12L459.15 328.12Q459.15 330.07 460.39 331.18Q461.64 332.28 463.69 332.28Q465.67 332.28 466.86 331.13Q468.04 329.98 468.04 328.12Q468.04 326.71 467.29 325.67Q466.54 324.63 465.13 324.25L461.58 323.26Q459.37 322.62 458.11 320.97Q456.84 319.32 456.84 317.08Q456.84 315.22 457.67 313.82Q458.51 312.41 460.01 311.62Q461.51 310.84 463.47 310.84Q465.45 310.84 466.97 311.62Q468.49 312.41 469.35 313.80Q470.22 315.19 470.22 317.02L467.34 317.02Q467.34 315.42 466.25 314.41Q465.16 313.40 463.47 313.40Q461.77 313.40 460.71 314.41Q459.66 315.42 459.66 317.02Q459.66 318.30 460.35 319.21Q461.03 320.12 462.28 320.47L465.93 321.50Q468.27 322.14 469.56 323.91Q470.86 325.69 470.86 328.12Q470.86 331.19 468.91 333.02Q466.95 334.84 463.69 334.84" fill="white" fill-opacity="0.9"/>
</g>
<path d="M74.37 197.64L72.21 197.64L72.21 180.12L74.37 180.12L74.37 187.66L76.96 187.66L80.85 180.12L83.20 180.12L78.86 188.57L83.44 197.64L80.97 197.64L76.89 189.55L74.37 189.55" fill="white" fill-opacity="0.7"/>
<path d="M90.45 197.88Q88.41 197.88 87.21 196.74Q86.01 195.60 86.01 193.75Q86.01 192.53 86.56 191.62Q87.11 190.70 88.10 190.19Q89.08 189.67 90.35 189.67L94.43 189.67L94.43 188.64Q94.43 186.07 91.62 186.07Q90.38 186.07 89.61 186.53Q88.84 186.98 88.79 187.80L86.63 187.80Q86.75 186.24 88.08 185.22Q89.42 184.20 91.62 184.20Q94.02 184.20 95.31 185.35Q96.59 186.50 96.59 188.57L96.59 197.64L94.46 197.64L94.46 195.24L94.41 195.24Q94.22 196.46 93.18 197.17Q92.15 197.88 90.45 197.88M90.98 196.06Q92.56 196.06 93.50 195.29Q94.43 194.52 94.43 193.20L94.43 191.35L90.59 191.35Q89.54 191.35 88.88 191.99Q88.22 192.62 88.22 193.68Q88.22 194.78 88.95 195.42Q89.68 196.06 90.98 196.06" fill="white" fill-opacity="0.7"/>
<path d="M103.65 197.64L101.49 197.64L101.49 184.44L103.65 184.44L103.65 186.96L103.70 186.96Q103.86 185.69 104.78 184.94Q105.69 184.20 107.22 184.20Q109.29 184.20 110.40 185.44Q111.52 186.67 111.52 188.95L111.52 190.08L109.36 190.08L109.36 188.95Q109.36 186.07 106.55 186.07Q105.14 186.07 104.39 186.89Q103.65 187.70 103.65 189.24" fill="white" fill-opacity="0.7"/>
<path d="M117.57 197.64L115.41 197.64L115.41 184.44L117.57 184.44L117.57 186.96L117.59 186.96Q117.76 185.64 118.67 184.92Q119.58 184.20 121.10 184.20Q123.09 184.20 124.26 185.42Q125.44 186.65 125.44 188.76L125.44 197.64L123.28 197.64L123.28 189.14Q123.28 187.63 122.52 186.83Q121.77 186.02 120.47 186.02Q119.13 186.02 118.35 186.86Q117.57 187.70 117.57 189.24" fill="white" fill-opacity="0.7"/>
<path d="M133.65 197.88Q131.61 197.88 130.41 196.74Q129.21 195.60 129.21 193.75Q129.21 192.53 129.76 191.62Q130.31 190.70 131.30 190.19Q132.28 189.67 133.55 189.67L137.63 189.67L137.63 188.64Q137.63 186.07 134.82 186.07Q133.58 186.07 132.81 186.53Q132.04 186.98 131.99 187.80L129.83 187.80Q129.95 186.24 131.28 185.22Q132.62 184.20 134.82 184.20Q137.22 184.20 138.51 185.35Q139.79 186.50 139.79 188.57L139.79 197.64L137.66 197.64L137.66 195.24L137.61 195.24Q137.42 196.46 136.38 197.17Q135.35 197.88 133.65 197.88M134.18 196.06Q135.76 196.06 136.70 195.29Q137.63 194.52 137.63 193.20L137.63 191.35L133.79 191.35Q132.74 191.35 132.08 191.99Q131.42 192.62 131.42 193.68Q131.42 194.78 132.15 195.42Q132.88 196.06 134.18 196.06" fill="white" fill-opacity="0.7"/>
<path d="M154.36 197.64L150.52 197.64Q148.89 197.64 147.90 196.69Q146.92 195.74 146.92 194.16L146.92 186.41L143.13 186.41L143.13 184.44L146.92 184.44L146.92 180.72L149.08 180.72L149.08 184.44L154.48 184.44L154.48 186.41L149.08 186.41L149.08 194.16Q149.08 194.83 149.48 195.25Q149.87 195.67 150.52 195.67L154.36 195.67" fill="white" fill-opacity="0.7"/>
<path d="M162.45 197.88Q160.41 197.88 159.21 196.74Q158.01 195.60 158.01 193.75Q158.01 192.53 158.56 191.62Q159.11 190.70 160.10 190.19Q161.08 189.67 162.35 189.67L166.43 189.67L166.43 188.64Q166.43 186.07 163.62 186.07Q162.38 186.07 161.61 186.53Q160.84 186.98 160.79 187.80L158.63 187.80Q158.75 186.24 160.08 185.22Q161.42 184.20 163.62 184.20Q166.02 184.20 167.31 185.35Q168.59 186.50 168.59 188.57L168.59 197.64L166.46 197.64L166.46 195.24L166.41 195.24Q166.22 196.46 165.18 197.17Q164.15 197.88 162.45 197.88M162.98 196.06Q164.56 196.06 165.50 195.29Q166.43 194.52 166.43 193.20L166.43 191.35L162.59 191.35Q161.54 191.35 160.88 191.99Q160.22 192.62 160.22 193.68Q160.22 194.78 160.95 195.42Q161.68 196.06 162.98 196.06" fill="white" fill-opacity="0.7"/>
<path d="M175.29 197.64L173.13 197.64L173.13 180.12L175.29 180.12L175.29 189.89L177.81 189.89L181.50 184.44L183.98 184.44L179.73 190.73L184.22 197.64L181.70 197.64L177.86 191.76L175.29 191.76" fill="white" fill-opacity="0.7"/>
<path d="M191.25 197.88Q189.21 197.88 188.01 196.74Q186.81 195.60 186.81 193.75Q186.81 192.53 187.36 191.62Q187.91 190.70 188.90 190.19Q189.88 189.67 191.15 189.67L195.23 189.67L195.23 188.64Q195.23 186.07 192.42 186.07Q191.18 186.07 190.41 186.53Q189.64 186.98 189.59 187.80L187.43 187.80Q187.55 186.24 188.88 185.22Q190.22 184.20 192.42 184.20Q194.82 184.20 196.11 185.35Q197.39 186.50 197.39 188.57L197.39 197.64L195.26 197.64L195.26 195.24L195.21 195.24Q195.02 196.46 193.98 197.17Q192.95 197.88 191.25 197.88M191.78 196.06Q193.36 196.06 194.30 195.29Q195.23 194.52 195.23 193.20L195.23 191.35L191.39 191.35Q190.34 191.35 189.68 191.99Q189.02 192.62 189.02 193.68Q189.02 194.78 189.75 195.42Q190.48 196.06 191.78 196.06" fill="white" fill-opacity="0.7"/>
<path d="M217.82 197.64L215.73 197.64L215.73 180.12L218.92 180.12L221.15 187.70L223.48 180.12L226.67 180.12L226.67 197.64L224.58 197.64L224.58 189.36Q224.58 188.18 224.62 186.66Q224.66 185.14 224.73 183.58Q224.80 182.02 224.90 180.77L222.06 189.82L220.19 189.82L217.48 180.98Q217.67 182.76 217.74 184.87Q217.82 186.98 217.82 189.36" fill="white" fill-opacity="0.7"/>
<path d="M235.58 197.88Q233.30 197.88 231.93 196.52Q230.56 195.17 230.56 192.84L230.56 184.44L232.72 184.44L232.72 192.84Q232.72 194.28 233.49 195.13Q234.26 195.98 235.58 195.98Q236.92 195.98 237.70 195.13Q238.48 194.28 238.48 192.84L238.48 184.44L240.64 184.44L240.64 192.84Q240.64 195.17 239.25 196.52Q237.86 197.88 235.58 197.88" fill="white" fill-opacity="0.7"/>
<path d="M247.17 197.64L245.01 197.64L245.01 184.44L247.17 184.44L247.17 186.96L247.19 186.96Q247.36 185.64 248.27 184.92Q249.18 184.20 250.70 184.20Q252.69 184.20 253.86 185.42Q255.04 186.65 255.04 188.76L255.04 197.64L252.88 197.64L252.88 189.14Q252.88 187.63 252.12 186.83Q251.37 186.02 250.07 186.02Q248.73 186.02 247.95 186.86Q247.17 187.70 247.17 189.24" fill="white" fill-opacity="0.7"/>
<path d="M270.52 197.64L259.24 197.64L259.24 195.67L263.92 195.67L263.92 186.41L259.72 186.41L259.72 184.44L266.08 184.44L266.08 195.67L270.52 195.67L270.52 197.64M264.76 182.06Q263.97 182.06 263.51 181.66Q263.06 181.25 263.06 180.55Q263.06 179.83 263.51 179.41Q263.97 178.99 264.76 178.99Q265.55 178.99 266.01 179.41Q266.46 179.83 266.46 180.55Q266.46 181.25 266.01 181.66Q265.55 182.06 264.76 182.06" fill="white" fill-opacity="0.7"/>
<path d="M278.99 197.88Q276.59 197.88 275.15 196.54Q273.71 195.19 273.71 192.84L273.71 189.24Q273.71 186.89 275.15 185.54Q276.59 184.20 278.99 184.20Q281.27 184.20 282.68 185.42Q284.08 186.65 284.15 188.76L281.99 188.76Q281.92 187.49 281.13 186.80Q280.34 186.12 278.99 186.12Q277.58 186.12 276.72 186.92Q275.87 187.73 275.87 189.22L275.87 192.84Q275.87 194.33 276.72 195.14Q277.58 195.96 278.99 195.96Q280.34 195.96 281.13 195.26Q281.92 194.57 281.99 193.32L284.15 193.32Q284.08 195.43 282.68 196.66Q281.27 197.88 278.99 197.88" fill="white" fill-opacity="0.7"/>
<path d="M299.32 197.64L288.04 197.64L288.04 195.67L292.72 195.67L292.72 186.41L288.52 186.41L288.52 184.44L294.88 184.44L294.88 195.67L299.32 195.67L299.32 197.64M293.56 182.06Q292.77 182.06 292.31 181.66Q291.86 181.25 291.86 180.55Q291.86 179.83 292.31 179.41Q292.77 178.99 293.56 178.99Q294.35 178.99 294.81 179.41Q295.26 179.83 295.26 180.55Q295.26 181.25 294.81 181.66Q294.35 182.06 293.56 182.06" fill="white" fill-opacity="0.7"/>
<path d="M304.77 201.96L302.61 201.96L302.61 184.44L304.77 184.44L304.77 186.96L304.79 186.96Q304.96 185.66 305.92 184.93Q306.88 184.20 308.37 184.20Q310.36 184.20 311.54 185.51Q312.71 186.82 312.71 189.10L312.71 192.96Q312.71 195.24 311.54 196.56Q310.36 197.88 308.37 197.88Q306.88 197.88 305.92 197.14Q304.96 196.39 304.79 195.12L304.72 195.12L304.77 198.12L304.77 201.96M307.65 196.01Q309.02 196.01 309.78 195.29Q310.55 194.57 310.55 192.96L310.55 189.12Q310.55 187.49 309.78 186.78Q309.02 186.07 307.65 186.07Q306.33 186.07 305.55 186.91Q304.77 187.75 304.77 189.24L304.77 192.84Q304.77 194.33 305.55 195.17Q306.33 196.01 307.65 196.01" fill="white" fill-opacity="0.7"/>
<path d="M320.85 197.88Q318.81 197.88 317.61 196.74Q316.41 195.60 316.41 193.75Q316.41 192.53 316.96 191.62Q317.51 190.70 318.50 190.19Q319.48 189.67 320.75 189.67L324.83 189.67L324.83 188.64Q324.83 186.07 322.02 186.07Q320.78 186.07 320.01 186.53Q319.24 186.98 319.19 187.80L317.03 187.80Q317.15 186.24 318.48 185.22Q319.82 184.20 322.02 184.20Q324.42 184.20 325.71 185.35Q326.99 186.50 326.99 188.57L326.99 197.64L324.86 197.64L324.86 195.24L324.81 195.24Q324.62 196.46 323.58 197.17Q322.55 197.88 320.85 197.88M321.38 196.06Q322.96 196.06 323.90 195.29Q324.83 194.52 324.83 193.20L324.83 191.35L320.99 191.35Q319.94 191.35 319.28 191.99Q318.62 192.62 318.62 193.68Q318.62 194.78 319.35 195.42Q320.08 196.06 321.38 196.06" fill="white" fill-opacity="0.7"/>
<path d="M342.40 197.64L338.32 197.64Q336.57 197.64 335.52 196.62Q334.48 195.60 334.48 193.92L334.48 182.09L329.92 182.09L329.92 180.12L336.64 180.12L336.64 193.92Q336.64 194.74 337.10 195.20Q337.55 195.67 338.32 195.67L342.40 195.67" fill="white" fill-opacity="0.7"/>
<path d="M361.41 197.64L359.20 197.64L363.76 180.12L366.66 180.12L371.20 197.64L369.02 197.64L367.86 192.98L362.56 192.98L361.41 197.64M364.34 185.74L362.99 191.16L367.41 191.16L366.06 185.76Q365.68 184.22 365.46 183.19Q365.25 182.16 365.20 181.85Q365.15 182.16 364.94 183.19Q364.72 184.22 364.34 185.74" fill="white" fill-opacity="0.7"/>
<path d="M378.83 197.88Q376.86 197.88 375.68 196.56Q374.49 195.24 374.49 192.98L374.49 189.12Q374.49 186.84 375.66 185.52Q376.84 184.20 378.83 184.20Q380.32 184.20 381.29 184.94Q382.26 185.69 382.46 186.96L382.48 186.96L382.43 183.96L382.43 180.12L384.59 180.12L384.59 197.64L382.43 197.64L382.43 195.12L382.41 195.12Q382.24 196.42 381.28 197.15Q380.32 197.88 378.83 197.88M379.55 196.01Q380.90 196.01 381.66 195.17Q382.43 194.33 382.43 192.84L382.43 189.24Q382.43 187.75 381.66 186.91Q380.90 186.07 379.55 186.07Q378.18 186.07 377.42 186.78Q376.65 187.49 376.65 189.12L376.65 192.96Q376.65 194.57 377.42 195.29Q378.18 196.01 379.55 196.01" fill="white" fill-opacity="0.7"/>
<path d="M390.26 197.64L388.24 197.64L388.24 184.44L390.11 184.44L390.11 186.19L390.16 186.19Q390.28 185.30 390.87 184.75Q391.46 184.20 392.37 184.20Q393.23 184.20 393.83 184.70Q394.43 185.21 394.70 186.07L394.72 186.07Q394.89 185.21 395.48 184.70Q396.06 184.20 396.98 184.20Q398.25 184.20 399 185.15Q399.76 186.10 399.76 187.61L399.76 197.64L397.74 197.64L397.74 187.58Q397.74 186.79 397.36 186.32Q396.98 185.86 396.30 185.86Q395.66 185.86 395.27 186.31Q394.89 186.77 394.89 187.56L394.89 197.64L393.11 197.64L393.11 187.58Q393.11 186.79 392.73 186.32Q392.34 185.86 391.70 185.86Q391.02 185.86 390.64 186.31Q390.26 186.77 390.26 187.56" fill="white" fill-opacity="0.7"/>
<path d="M414.52 197.64L403.24 197.64L403.24 195.67L407.92 195.67L407.92 186.41L403.72 186.41L403.72 184.44L410.08 184.44L410.08 195.67L414.52 195.67L414.52 197.64M408.76 182.06Q407.97 182.06 407.51 181.66Q407.06 181.25 407.06 180.55Q407.06 179.83 407.51 179.41Q407.97 178.99 408.76 178.99Q409.55 178.99 410.01 179.41Q410.46 179.83 410.46 180.55Q410.46 181.25 410.01 181.66Q409.55 182.06 408.76 182.06" fill="white" fill-opacity="0.7"/>
<path d="M419.97 197.64L417.81 197.64L417.81 184.44L419.97 184.44L419.97 186.96L419.99 186.96Q420.16 185.64 421.07 184.92Q421.98 184.20 423.50 184.20Q425.49 184.20 426.66 185.42Q427.84 186.65 427.84 188.76L427.84 197.64L425.68 197.64L425.68 189.14Q425.68 187.63 424.92 186.83Q424.17 186.02 422.87 186.02Q421.53 186.02 420.75 186.86Q419.97 187.70 419.97 189.24" fill="white" fill-opacity="0.7"/>
<path d="M443.32 197.64L432.04 197.64L432.04 195.67L436.72 195.67L436.72 186.41L432.52 186.41L432.52 184.44L438.88 184.44L438.88 195.67L443.32 195.67L443.32 197.64M437.56 182.06Q436.77 182.06 436.31 181.66Q435.86 181.25 435.86 180.55Q435.86 179.83 436.31 179.41Q436.77 178.99 437.56 178.99Q438.35 178.99 438.81 179.41Q439.26 179.83 439.26 180.55Q439.26 181.25 438.81 181.66Q438.35 182.06 437.56 182.06" fill="white" fill-opacity="0.7"/>
<path d="M452.13 197.83L451.07 197.83Q448.86 197.83 447.65 196.84Q446.44 195.84 446.44 194.02L448.60 194.02Q448.60 194.93 449.25 195.44Q449.90 195.96 451.07 195.96L452.13 195.96Q453.33 195.96 453.99 195.43Q454.65 194.90 454.65 193.94Q454.65 192.24 453.09 192.02L449.44 191.50Q448.10 191.30 447.35 190.38Q446.61 189.46 446.61 187.94Q446.61 186.22 447.80 185.23Q448.98 184.25 451.07 184.25L452.13 184.25Q454.05 184.25 455.26 185.20Q456.47 186.14 456.57 187.68L454.38 187.68Q454.34 186.98 453.72 186.53Q453.11 186.07 452.13 186.07L451.07 186.07Q449.97 186.07 449.34 186.58Q448.72 187.08 448.72 187.94Q448.72 189.34 449.99 189.53L453.40 190.01Q456.76 190.49 456.76 193.94Q456.76 195.79 455.55 196.81Q454.34 197.83 452.13 197.83" fill="white" fill-opacity="0.7"/>
<path d="M471.16 197.64L467.32 197.64Q465.69 197.64 464.70 196.69Q463.72 195.74 463.72 194.16L463.72 186.41L459.93 186.41L459.93 184.44L463.72 184.44L463.72 180.72L465.88 180.72L465.88 184.44L471.28 184.44L471.28 186.41L465.88 186.41L465.88 194.16Q465.88 194.83 466.28 195.25Q466.67 195.67 467.32 195.67L471.16 195.67" fill="white" fill-opacity="0.7"/>
<path d="M478.05 197.64L475.89 197.64L475.89 184.44L478.05 184.44L478.05 186.96L478.10 186.96Q478.26 185.69 479.18 184.94Q480.09 184.20 481.62 184.20Q483.69 184.20 484.80 185.44Q485.92 186.67 485.92 188.95L485.92 190.08L483.76 190.08L483.76 188.95Q483.76 186.07 480.95 186.07Q479.54 186.07 478.79 186.89Q478.05 187.70 478.05 189.24" fill="white" fill-opacity="0.7"/>
<path d="M493.65 197.88Q491.61 197.88 490.41 196.74Q489.21 195.60 489.21 193.75Q489.21 192.53 489.76 191.62Q490.31 190.70 491.30 190.19Q492.28 189.67 493.55 189.67L497.63 189.67L497.63 188.64Q497.63 186.07 494.82 186.07Q493.58 186.07 492.81 186.53Q492.04 186.98 491.99 187.80L489.83 187.80Q489.95 186.24 491.28 185.22Q492.62 184.20 494.82 184.20Q497.22 184.20 498.51 185.35Q499.79 186.50 499.79 188.57L499.79 197.64L497.66 197.64L497.66 195.24L497.61 195.24Q497.42 196.46 496.38 197.17Q495.35 197.88 493.65 197.88M494.18 196.06Q495.76 196.06 496.70 195.29Q497.63 194.52 497.63 193.20L497.63 191.35L493.79 191.35Q492.74 191.35 492.08 191.99Q491.42 192.62 491.42 193.68Q491.42 194.78 492.15 195.42Q492.88 196.06 494.18 196.06" fill="white" fill-opacity="0.7"/>
<path d="M514.36 197.64L510.52 197.64Q508.89 197.64 507.90 196.69Q506.92 195.74 506.92 194.16L506.92 186.41L503.13 186.41L503.13 184.44L506.92 184.44L506.92 180.72L509.08 180.72L509.08 184.44L514.48 184.44L514.48 186.41L509.08 186.41L509.08 194.16Q509.08 194.83 509.48 195.25Q509.87 195.67 510.52 195.67L514.36 195.67" fill="white" fill-opacity="0.7"/>
<path d="M529.72 197.64L518.44 197.64L518.44 195.67L523.12 195.67L523.12 186.41L518.92 186.41L518.92 184.44L525.28 184.44L525.28 195.67L529.72 195.67L529.72 197.64M523.96 182.06Q523.17 182.06 522.71 181.66Q522.26 181.25 522.26 180.55Q522.26 179.83 522.71 179.41Q523.17 178.99 523.96 178.99Q524.75 178.99 525.21 179.41Q525.66 179.83 525.66 180.55Q525.66 181.25 525.21 181.66Q524.75 182.06 523.96 182.06" fill="white" fill-opacity="0.7"/>
<path d="M538 197.83Q535.62 197.83 534.22 196.44Q532.82 195.05 532.82 192.55L532.82 189.53Q532.82 187.01 534.21 185.63Q535.60 184.25 538 184.25Q540.40 184.25 541.79 185.63Q543.18 187.01 543.18 189.53L543.18 192.55Q543.18 195.05 541.78 196.44Q540.38 197.83 538 197.83M538 195.91Q539.42 195.91 540.22 195.12Q541.02 194.33 541.02 192.79L541.02 189.29Q541.02 187.75 540.22 186.96Q539.42 186.17 538 186.17Q536.61 186.17 535.79 186.96Q534.98 187.75 534.98 189.29L534.98 192.79Q534.98 194.33 535.79 195.12Q536.61 195.91 538 195.91" fill="white" fill-opacity="0.7"/>
<path d="M549.57 197.64L547.41 197.64L547.41 184.44L549.57 184.44L549.57 186.96L549.59 186.96Q549.76 185.64 550.67 184.92Q551.58 184.20 553.10 184.20Q555.09 184.20 556.26 185.42Q557.44 186.65 557.44 188.76L557.44 197.64L555.28 197.64L555.28 189.14Q555.28 187.63 554.52 186.83Q553.77 186.02 552.47 186.02Q551.13 186.02 550.35 186.86Q549.57 187.70 549.57 189.24" fill="white" fill-opacity="0.7"/>
<path d="M580.74 197.64L576.21 197.64L576.21 180.12L580.74 180.12Q582.45 180.12 583.68 180.77Q584.92 181.42 585.60 182.59Q586.29 183.77 586.29 185.38L586.29 192.36Q586.29 193.97 585.60 195.16Q584.92 196.34 583.68 196.99Q582.45 197.64 580.74 197.64M578.37 182.04L578.37 195.72L580.74 195.72Q582.33 195.72 583.23 194.83Q584.13 193.94 584.13 192.36L584.13 185.38Q584.13 183.82 583.23 182.93Q582.33 182.04 580.74 182.04" fill="white" fill-opacity="0.7"/>
<path d="M601.72 197.64L590.44 197.64L590.44 195.67L595.12 195.67L595.12 186.41L590.92 186.41L590.92 184.44L597.28 184.44L597.28 195.67L601.72 195.67L601.72 197.64M595.96 182.06Q595.17 182.06 594.71 181.66Q594.26 181.25 594.26 180.55Q594.26 179.83 594.71 179.41Q595.17 178.99 595.96 178.99Q596.75 178.99 597.21 179.41Q597.66 179.83 597.66 180.55Q597.66 181.25 597.21 181.66Q596.75 182.06 595.96 182.06" fill="white" fill-opacity="0.7"/>
<path d="M607.65 197.64L605.49 197.64L605.49 184.44L607.65 184.44L607.65 186.96L607.70 186.96Q607.86 185.69 608.78 184.94Q609.69 184.20 611.22 184.20Q613.29 184.20 614.40 185.44Q615.52 186.67 615.52 188.95L615.52 190.08L613.36 190.08L613.36 188.95Q613.36 186.07 610.55 186.07Q609.14 186.07 608.39 186.89Q607.65 187.70 607.65 189.24" fill="white" fill-opacity="0.7"/>
<path d="M624.40 197.88Q622.07 197.88 620.64 196.48Q619.22 195.07 619.22 192.60L619.22 189.48Q619.22 187.01 620.64 185.60Q622.07 184.20 624.40 184.20Q625.96 184.20 627.12 184.82Q628.29 185.45 628.94 186.58Q629.58 187.70 629.58 189.24L629.58 191.59L621.33 191.59L621.33 192.84Q621.33 194.30 622.17 195.16Q623.01 196.01 624.40 196.01Q625.60 196.01 626.38 195.54Q627.16 195.07 627.33 194.28L629.49 194.28Q629.27 195.94 627.88 196.91Q626.49 197.88 624.40 197.88M621.33 189.24L621.33 189.91L627.47 189.91L627.47 189.24Q627.47 187.68 626.67 186.83Q625.86 185.98 624.40 185.98Q622.94 185.98 622.13 186.83Q621.33 187.68 621.33 189.24" fill="white" fill-opacity="0.7"/>
<path d="M638.99 197.88Q636.59 197.88 635.15 196.54Q633.71 195.19 633.71 192.84L633.71 189.24Q633.71 186.89 635.15 185.54Q636.59 184.20 638.99 184.20Q641.27 184.20 642.68 185.42Q644.08 186.65 644.15 188.76L641.99 188.76Q641.92 187.49 641.13 186.80Q640.34 186.12 638.99 186.12Q637.58 186.12 636.72 186.92Q635.87 187.73 635.87 189.22L635.87 192.84Q635.87 194.33 636.72 195.14Q637.58 195.96 638.99 195.96Q640.34 195.96 641.13 195.26Q641.92 194.57 641.99 193.32L644.15 193.32Q644.08 195.43 642.68 196.66Q641.27 197.88 638.99 197.88" fill="white" fill-opacity="0.7"/>
<path d="M658.36 197.64L654.52 197.64Q652.89 197.64 651.90 196.69Q650.92 195.74 650.92 194.16L650.92 186.41L647.13 186.41L647.13 184.44L650.92 184.44L650.92 180.72L653.08 180.72L653.08 184.44L658.48 184.44L658.48 186.41L653.08 186.41L653.08 194.16Q653.08 194.83 653.48 195.25Q653.87 195.67 654.52 195.67L658.36 195.67" fill="white" fill-opacity="0.7"/>
<path d="M667.60 197.83Q665.22 197.83 663.82 196.44Q662.42 195.05 662.42 192.55L662.42 189.53Q662.42 187.01 663.81 185.63Q665.20 184.25 667.60 184.25Q670 184.25 671.39 185.63Q672.78 187.01 672.78 189.53L672.78 192.55Q672.78 195.05 671.38 196.44Q669.98 197.83 667.60 197.83M667.60 195.91Q669.02 195.91 669.82 195.12Q670.62 194.33 670.62 192.79L670.62 189.29Q670.62 187.75 669.82 186.96Q669.02 186.17 667.60 186.17Q666.21 186.17 665.39 186.96Q664.58 187.75 664.58 189.29L664.58 192.79Q664.58 194.33 665.39 195.12Q666.21 195.91 667.60 195.91" fill="white" fill-opacity="0.7"/>
<path d="M679.65 197.64L677.49 197.64L677.49 184.44L679.65 184.44L679.65 186.96L679.70 186.96Q679.86 185.69 680.78 184.94Q681.69 184.20 683.22 184.20Q685.29 184.20 686.40 185.44Q687.52 186.67 687.52 188.95L687.52 190.08L685.36 190.08L685.36 188.95Q685.36 186.07 682.55 186.07Q681.14 186.07 680.39 186.89Q679.65 187.70 679.65 189.24" fill="white" fill-opacity="0.7"/>
<path d="M695.25 197.88Q693.21 197.88 692.01 196.74Q690.81 195.60 690.81 193.75Q690.81 192.53 691.36 191.62Q691.91 190.70 692.90 190.19Q693.88 189.67 695.15 189.67L699.23 189.67L699.23 188.64Q699.23 186.07 696.42 186.07Q695.18 186.07 694.41 186.53Q693.64 186.98 693.59 187.80L691.43 187.80Q691.55 186.24 692.88 185.22Q694.22 184.20 696.42 184.20Q698.82 184.20 700.11 185.35Q701.39 186.50 701.39 188.57L701.39 197.64L699.26 197.64L699.26 195.24L699.21 195.24Q699.02 196.46 697.98 197.17Q696.95 197.88 695.25 197.88M695.78 196.06Q697.36 196.06 698.30 195.29Q699.23 194.52 699.23 193.20L699.23 191.35L695.39 191.35Q694.34 191.35 693.68 191.99Q693.02 192.62 693.02 193.68Q693.02 194.78 693.75 195.42Q694.48 196.06 695.78 196.06" fill="white" fill-opacity="0.7"/>
<path d="M715.96 197.64L712.12 197.64Q710.49 197.64 709.50 196.69Q708.52 195.74 708.52 194.16L708.52 186.41L704.73 186.41L704.73 184.44L708.52 184.44L708.52 180.72L710.68 180.72L710.68 184.44L716.08 184.44L716.08 186.41L710.68 186.41L710.68 194.16Q710.68 194.83 711.08 195.25Q711.47 195.67 712.12 195.67L715.96 195.67" fill="white" fill-opacity="0.7"/>
<path d="M725.20 197.88Q722.87 197.88 721.44 196.48Q720.02 195.07 720.02 192.60L720.02 189.48Q720.02 187.01 721.44 185.60Q722.87 184.20 725.20 184.20Q726.76 184.20 727.92 184.82Q729.09 185.45 729.74 186.58Q730.38 187.70 730.38 189.24L730.38 191.59L722.13 191.59L722.13 192.84Q722.13 194.30 722.97 195.16Q723.81 196.01 725.20 196.01Q726.40 196.01 727.18 195.54Q727.96 195.07 728.13 194.28L730.29 194.28Q730.07 195.94 728.68 196.91Q727.29 197.88 725.20 197.88M722.13 189.24L722.13 189.91L728.27 189.91L728.27 189.24Q728.27 187.68 727.47 186.83Q726.66 185.98 725.20 185.98Q723.74 185.98 722.93 186.83Q722.13 187.68 722.13 189.24" fill="white" fill-opacity="0.7"/>
<path d="M750.21 197.64L748 197.64L752.56 180.12L755.46 180.12L760 197.64L757.82 197.64L756.66 192.98L751.36 192.98L750.21 197.64M753.14 185.74L751.79 191.16L756.21 191.16L754.86 185.76Q754.48 184.22 754.26 183.19Q754.05 182.16 754 181.85Q753.95 182.16 753.74 183.19Q753.52 184.22 753.14 185.74" fill="white" fill-opacity="0.7"/>
<path d="M765.57 197.64L763.41 197.64L763.41 180.12L769.05 180.12Q771.50 180.12 772.95 181.52Q774.40 182.93 774.40 185.28Q774.40 187.63 772.95 189.04Q771.50 190.44 769.05 190.44L765.57 190.44L765.57 197.64M765.57 182.06L765.57 188.50L769.05 188.50Q770.46 188.50 771.32 187.62Q772.17 186.74 772.17 185.28Q772.17 183.79 771.32 182.93Q770.46 182.06 769.05 182.06" fill="white" fill-opacity="0.7"/>
<path d="M787.48 197.64L778.12 197.64L778.12 195.67L781.70 195.67L781.70 182.09L778.12 182.09L778.12 180.12L787.48 180.12L787.48 182.09L783.90 182.09L783.90 195.67L787.48 195.67" fill="white" fill-opacity="0.7"/>
<path d="M797.73 197.83L796.67 197.83Q794.46 197.83 793.25 196.84Q792.04 195.84 792.04 194.02L794.20 194.02Q794.20 194.93 794.85 195.44Q795.50 195.96 796.67 195.96L797.73 195.96Q798.93 195.96 799.59 195.43Q800.25 194.90 800.25 193.94Q800.25 192.24 798.69 192.02L795.04 191.50Q793.70 191.30 792.95 190.38Q792.21 189.46 792.21 187.94Q792.21 186.22 793.40 185.23Q794.58 184.25 796.67 184.25L797.73 184.25Q799.65 184.25 800.86 185.20Q802.07 186.14 802.17 187.68L799.98 187.68Q799.94 186.98 799.32 186.53Q798.71 186.07 797.73 186.07L796.67 186.07Q795.57 186.07 794.94 186.58Q794.32 187.08 794.32 187.94Q794.32 189.34 795.59 189.53L799 190.01Q802.36 190.49 802.36 193.94Q802.36 195.79 801.15 196.81Q799.94 197.83 797.73 197.83" fill="white" fill-opacity="0.7"/>
<path d="M811.60 197.88Q810.71 197.88 810.17 197.35Q809.63 196.82 809.63 195.98Q809.63 195.10 810.17 194.54Q810.71 193.99 811.60 193.99Q812.49 193.99 813.03 194.54Q813.57 195.10 813.57 195.98Q813.57 196.82 813.03 197.35Q812.49 197.88 811.60 197.88" fill="white" fill-opacity="0.7"/>
<path d="M76.11 136.06L66.42 136.06L84.56 65.98L97.14 65.98L115.18 136.06L105.49 136.06L101.07 117.82L80.53 117.82L76.11 136.06M87.54 88.92L82.45 109.95L99.15 109.95L94.16 89.02Q92.72 83.26 91.86 79.23Q90.99 75.20 90.80 73.76Q90.61 75.20 89.74 79.23Q88.88 83.26 87.54 88.92M137.55 136.06L128.05 136.06L128.05 65.98L150.80 65.98Q157.52 65.98 162.42 68.57Q167.31 71.16 170 75.82Q172.69 80.48 172.69 86.91Q172.69 93.24 170 97.90Q167.31 102.56 162.37 105.15Q157.42 107.74 150.80 107.74L137.55 107.74L137.55 136.06M137.55 74.43L137.55 99.29L150.80 99.29Q156.37 99.29 159.63 95.88Q162.90 92.48 162.90 86.91Q162.90 81.24 159.63 77.84Q156.37 74.43 150.80 74.43L137.55 74.43M225.10 136.06L186.90 136.06L186.90 127.42L201.20 127.42L201.20 74.62L186.90 74.62L186.90 65.98L225.10 65.98L225.10 74.62L210.80 74.62L210.80 127.42L225.10 127.42L225.10 136.06M263.98 137.02Q253.62 137.02 247.47 131.60Q241.33 126.17 241.33 116.67L250.83 116.67Q250.83 122.24 254.38 125.40Q257.94 128.57 263.98 128.57Q269.74 128.57 273.15 125.36Q276.56 122.14 276.56 116.76Q276.56 112.73 274.35 109.71Q272.14 106.68 268.11 105.63L257.74 102.84Q250.93 100.92 246.94 95.88Q242.96 90.84 242.96 83.93Q242.96 78.27 245.50 74Q248.05 69.72 252.66 67.37Q257.26 65.02 263.31 65.02Q269.46 65.02 274.11 67.37Q278.77 69.72 281.36 73.95Q283.95 78.17 283.95 83.74L274.54 83.74Q274.54 79.13 271.42 76.25Q268.30 73.37 263.31 73.37Q258.32 73.37 255.30 76.25Q252.27 79.13 252.27 83.74Q252.27 87.48 254.29 90.03Q256.30 92.57 259.95 93.63L270.61 96.51Q277.81 98.43 281.84 103.85Q285.87 109.28 285.87 116.76Q285.87 122.91 283.18 127.47Q280.50 132.03 275.55 134.52Q270.61 137.02 263.98 137.02M342.51 136.06L301.71 136.06L301.71 65.98L342.51 65.98L342.51 74.52L311.12 74.52L311.12 95.36L339.15 95.36L339.15 103.61L311.12 103.61L311.12 127.52L342.51 127.52L342.51 136.06M383.60 136.06L374.10 136.06L374.10 74.62L355.09 74.62L355.09 65.98L402.51 65.98L402.51 74.62L383.60 74.62L383.60 136.06M436.40 137.02Q426.51 137.02 421.18 131.55Q415.86 126.08 415.86 116.67L415.86 65.98L425.36 65.98L425.36 116.67Q425.36 122.24 428.10 125.40Q430.83 128.57 436.40 128.57Q441.87 128.57 444.70 125.40Q447.54 122.24 447.54 116.67L447.54 65.98L457.04 65.98L457.04 116.67Q457.04 126.17 451.71 131.60Q446.38 137.02 436.40 137.02M551.98 137.02Q542.29 137.02 536.58 131.60Q530.86 126.17 530.86 116.67L530.86 85.28Q530.86 75.87 536.58 70.44Q542.29 65.02 551.98 65.02Q561.58 65.02 567.30 70.49Q573.01 75.96 573.01 85.28L563.50 85.28Q563.50 79.61 560.43 76.54Q557.36 73.47 551.98 73.47Q546.51 73.47 543.44 76.54Q540.37 79.61 540.37 85.28L540.37 116.67Q540.37 122.43 543.44 125.50Q546.51 128.57 551.98 128.57Q557.36 128.57 560.43 125.50Q563.50 122.43 563.50 116.67L563.50 107.55L549.87 107.55L549.87 99.10L573.01 99.10L573.01 116.67Q573.01 126.08 567.30 131.55Q561.58 137.02 551.98 137.02M609.20 137.02Q599.60 137.02 594.03 131.45Q588.46 125.88 588.46 115.71L588.46 86.24Q588.46 76.16 594.03 70.59Q599.60 65.02 609.20 65.02Q618.80 65.02 624.37 70.54Q629.94 76.06 629.94 86.24L629.94 115.71Q629.94 125.88 624.37 131.45Q618.80 137.02 609.20 137.02M609.20 128.57Q614.58 128.57 617.50 125.50Q620.43 122.43 620.43 116.67L620.43 85.28Q620.43 79.61 617.55 76.54Q614.67 73.47 609.20 73.47Q603.73 73.47 600.85 76.54Q597.97 79.61 597.97 85.28L597.97 116.67Q597.97 122.43 600.90 125.50Q603.82 128.57 609.20 128.57M673.14 136.06L660.37 136.06L642.42 65.98L652.21 65.98L663.82 113.21Q664.98 117.72 665.79 121.90Q666.61 126.08 666.99 128.28Q667.28 126.08 668.19 121.85Q669.10 117.63 670.16 113.12L681.39 65.98L691.18 65.98L673.14 136.06M768.75 136.06L759.73 136.06L759.73 65.98L773.17 65.98L781.81 96.22L790.83 65.98L804.37 65.98L804.37 136.06L795.25 136.06L795.25 103.90Q795.25 98.81 795.44 92.62Q795.63 86.43 795.97 80.24Q796.30 74.04 796.69 69.05L785.74 104.96L777.68 104.96L767.12 69.92Q767.98 76.92 768.37 85.52Q768.75 94.11 768.75 103.90L768.75 136.06M839.60 137.02Q829.71 137.02 824.38 131.55Q819.06 126.08 819.06 116.67L819.06 65.98L828.56 65.98L828.56 116.67Q828.56 122.24 831.30 125.40Q834.03 128.57 839.60 128.57Q845.07 128.57 847.90 125.40Q850.74 122.24 850.74 116.67L850.74 65.98L860.24 65.98L860.24 116.67Q860.24 126.17 854.91 131.60Q849.58 137.02 839.60 137.02M885.58 136.06L876.66 136.06L876.66 65.98L888.94 65.98L909.87 125.12Q909.58 122.62 909.34 118.92Q909.10 115.23 908.96 111.24Q908.82 107.26 908.82 103.71L908.82 65.98L917.84 65.98L917.84 136.06L905.46 136.06L884.72 76.92Q884.91 79.42 885.10 83.02Q885.30 86.62 885.44 90.56Q885.58 94.49 885.58 97.95L885.58 136.06M973.90 136.06L935.70 136.06L935.70 127.42LNaN 127.42LNaN 74.62L935.70 74.62L935.70 65.98L973.90 65.98L973.90 74.62L959.60 74.62L959.60 127.42L973.90 127.42L973.90 136.06M1013.17 137.02Q1003.47 137.02 997.76 131.60Q992.05 126.17 992.05 116.67L992.05 85.28Q992.05 75.87 997.76 70.44Q1003.47 65.02 1013.17 65.02Q1022.77 65.02 1028.48 70.49Q1034.19 75.96 1034.19 85.28L1024.69 85.28Q1024.69 79.61 1021.62 76.54Q1018.54 73.47 1013.17 73.47Q1007.70 73.47 1004.62 76.54Q1001.55 79.61 1001.55 85.28L1001.55 116.67Q1001.55 122.43 1004.62 125.50Q1007.70 128.57 1013.17 128.57Q1018.54 128.57 1021.62 125.50Q1024.69 122.43 1024.69 116.67L1034.19 116.67Q1034.19 126.08 1028.48 131.55Q1022.77 137.02 1013.17 137.02M1089.10 136.06L1050.90 136.06L1050.90 127.42L1065.20 127.42L1065.20 74.62L1050.90 74.62L1050.90 65.98L1089.10 65.98L1089.10 74.62L1074.80 74.62L1074.80 127.42L1089.10 127.42L1089.10 136.06M1116.75 136.06L1107.25 136.06L1107.25 65.98LNaN 65.98Q1136.72 65.98 1141.62 68.57Q1146.51 71.16 1149.20 75.82Q1151.89 80.48 1151.89 86.91Q1151.89 93.24 1149.20 97.90Q1146.51 102.56 1141.57 105.15Q1136.62 107.74 NaN 107.74L1116.75 107.74L1116.75 136.06M1116.75 74.43L1116.75 99.29LNaN 99.29Q1135.57 99.29 1138.83 95.88Q1142.10 92.48 1142.10 86.91Q1142.10 81.24 1138.83 77.84Q1135.57 74.43 NaN 74.43L1116.75 74.43M1170.51 136.06L1160.82 136.06L1178.96 65.98L1191.54 65.98L1209.58 136.06L1199.89 136.06L1195.47 117.82L1174.93 117.82L1170.51 136.06M1181.94 88.92L1176.85 109.95L1193.55 109.95L1188.56 89.02Q1187.12 83.26 1186.26 79.23Q1185.39 75.20 1185.20 73.76Q1185.01 75.20 1184.14 79.23Q1183.28 83.26 1181.94 88.92M1266.99 136.06L1226.29 136.06L1226.29 65.98L1235.79 65.98L1235.79 127.42L1266.99 127.42L1266.99 136.06M1285.71 136.06L1276.02 136.06L1294.16 65.98L1306.74 65.98L1324.78 136.06L1315.09 136.06L1310.67 117.82L1290.13 117.82L1285.71 136.06M1297.14 88.92L1292.05 109.95L1308.75 109.95L1303.76 89.02Q1302.32 83.26 1301.46 79.23Q1300.59 75.20 1300.40 73.76Q1300.21 75.20 1299.34 79.23Q1298.48 83.26 1297.14 88.92M1356.46 136.06L1337.65 136.06L1337.65 65.98L1356.46 65.98Q1363.28 65.98 1368.32 68.62Q1373.36 71.26 1376.14 76.01Q1378.93 80.76 1378.93 87.20L1378.93 114.75Q1378.93 121.18 1376.14 125.98Q1373.36 130.78 1368.32 133.42Q1363.28 136.06 1356.46 136.06M1347.15 74.43L1347.15 127.61L1356.46 127.61Q1362.51 127.61 1365.97 124.16Q1369.42 120.70 1369.42 114.75L1369.42 87.20Q1369.42 81.24 1365.97 77.84Q1362.51 74.43 1356.46 74.43L1347.15 74.43M1402.35 136.06L1393.33 136.06L1393.33 65.98L1406.77 65.98L1415.41 96.22L1424.43 65.98L1437.97 65.98L1437.97 136.06L1428.85 136.06L1428.85 103.90Q1428.85 98.81 1429.04 92.62Q1429.23 86.43 1429.57 80.24Q1429.90 74.04 1430.29 69.05L1419.34 104.96L1411.28 104.96L1400.72 69.92Q1401.58 76.92 1401.97 85.52Q1402.35 94.11 1402.35 103.90L1402.35 136.06M1492.30 136.06L1454.10 136.06L1454.10 127.42L1468.40 127.42L1468.40 74.62L1454.10 74.62L1454.10 65.98L1492.30 65.98L1492.30 74.62L1478 74.62L1478 127.42L1492.30 127.42L1492.30 136.06M1519.18 136.06L1510.26 136.06L1510.26 65.98L1522.54 65.98L1543.47 125.12Q1543.18 122.62 1542.94 118.92Q1542.70 115.23 1542.56 111.24Q1542.42 107.26 1542.42 103.71L1542.42 65.98L1551.44 65.98L1551.44 136.06L1539.06 136.06L1518.32 76.92Q1518.51 79.42 1518.70 83.02Q1518.90 86.62 1519.04 90.56Q1519.18 94.49 1519.18 97.95" fill="url(#paint2_linear_0_1)"/>
<g id="Group 1">
<rect id="Rectangle 1" x="26" y="168" width="12" height="184" rx="5" fill="url(#paint3_linear_0_1)" fill-opacity="0.9"/>
</g>
<g id="Group 1_2">
<rect id="Rectangle 2" x="26" y="38" width="12" height="119" rx="5" fill="url(#paint4_linear_0_1)" fill-opacity="0.9"/>
</g>
<ellipse id="Ellipse 1" cx="148.5" cy="573" rx="215.5" ry="214" fill="url(#paint5_linear_0_1)" fill-opacity="0.4"/>
<rect id="Rectangle 3" x="1229" y="48" width="300" height="300" rx="25" fill="#FFFBFB" fill-opacity="0.9"/>
<g id="placeholder-logo"><g transform="translate(1229,48) translate(0.0,60.0) scale(1.2000)"><g fill="#666666">
  <path d="m88.05,27.65c-3.15,4 -3.2,51.2 -0.05,54.35c2.75,2.75 71.7,3.15 74.45,0.45c2.85,-2.9 2.3,-53.85 -0.65,-55.9c-1.95,-1.35 -7.15,-1.55 -36.95,-1.55l-34.7,0l-2.1,2.65zm69.45,3.35c0.65,0 1,8.6 1,23.75l0,23.75l-33,0l-33,0l-0.25,-23c-0.15,-12.6 -0.1,-23.45 0.15,-24.1c0.35,-0.85 8.9,-1.05 32.25,-0.75c17.55,0.2 32.3,0.35 32.85,0.35z"/>
  <path d="m99.15,37.3c-6.85,7.35 4.25,17.35 11.4,10.25c1.35,-1.35 2.45,-3.65 2.45,-5.05c0,-6.45 -9.35,-9.95 -13.85,-5.2z"/>
  <path d="m135,42.5c-0.7,0.85 -5.25,5.15 -10.1,9.6l-8.85,8.1l-3.2,-3.2l-3.15,-3.15l-6.35,6.3c-5.55,5.5 -6.35,6.75 -6.35,10.05l0,3.8l28.5,0l28.5,0l0,-8.6l0,-8.55l-8.15,-7.7c-9.35,-8.85 -9.15,-8.7 -10.85,-6.65zm7.25,15.2c0.95,0.9 1.75,2.9 1.75,4.45c6.35,-5.05 4.75,-7.15 4.9,-11.55c0.95,0 0,0 0,0l-6.65,7.1z"/>
  <path d="m53.65,110.75c0.1,4.8 0.45,8.65 0.75,8.5c0.35,-0.15 1.3,-0.25 2.1,-0.25c1.1,0 1.5,-1.2 1.5,-4.75l0,-4.75l3.25,5c4.9,7.5 6.2,6.75 6.55,-3.75c0.25,-8.15 0.15,-8.75 -1.7,-8.75c-1.65,0 -2.05,0.8 -2.3,4.75l-0.3,4.75l-2.8,-4.75c-4.85,-8.25 -7.25,-6.9 -7.05,4z"/>
  <path d="m91,108.9c0,9.65 0.3,10.1 6.1,10.1c5.8,0 7.15,-2.65 1.65,-3.2l-3.25,-0.3l-0.3,-6.75c-0.25,-5.95 -0.55,-6.75 -2.25,-6.75c-1.75,0 -1.95,0.7 -1.95,6.9z"/>
  <path d="m151,102.45c0,0.25 1,2.15 2.25,4.2c1.2,2.1 2.45,5.8 2.75,8.25c0.65,5.9 4,6.95 4,1.25c0.05,-2.1 1.25,-5.85 2.95,-8.9l2.9,-5.25l-2.5,0c-1.8,0 -2.8,0.85 -3.75,3.1l-1.3,3.05l-1.25,-3.05c-1.1,-2.6 -6.05,-4.8 -6.05,-2.65z"/>
  <path d="m191,107.45c0,9.05 3.4,8.85 4.25,-0.2c0.45,-5 0.35,-5.25 -1.9,-5.25c-2.2,0 -2.35,0.4 -2.35,5.45z"/>
  <path d="m180.8,104.75c-1.3,5.35 0.65,13.6 3.45,14.35c2.3,0.6 2.75,0.4 2.75,-1.2c0,-1.05 -0.45,-1.9 -1,-1.9c-0.55,0 -1,-1.6 -1,-3.5c0,-1.95 0.45,-3.5 1,-3.5c0.55,0 1,-0.7 1,-1.5c0,-0.85 -0.45,-1.5 -1,-1.5c-0.55,0 -1,-0.7 -1,-1.5c0,-2.1 -3.65,-1.9 -4.2,0.25z"/>
  <path d="m71.55,106.55c-2.2,2.25 -2.05,9.7 0.3,11.8c4.5,4.1 10.15,0.75 10.15,-6.1c0,-4.85 -2,-7.25 -6,-7.25c-1.55,0 -3.55,0.7 -4.45,1.55zm6.25,5.8c0.25,3.05 0,3.65 -1.6,3.65c-2.3,0 -3.25,-2.65 -2.05,-5.85c1.25,-3.35 3.3,-2.1 3.65,2.2z"/>
  <path d="m105.75,106.1c-2.5,1.45 -2.45,9.95 0.1,12.25c4.3,3.9 10.15,0.35 10.15,-6.2c0,-6 -5.15,-9.05 -10.25,-6.05zm6.05,6.25c0.25,3.05 0,3.65 -1.6,3.65c-2.3,0 -3.25,-2.65 -2.05,-5.85c1.25,-3.35 3.3,-2.1 3.65,2.2z"/>
  <path d="m119.2,106.2c-3.8,3.8 -0.4,12.55 4.4,11.35c1.9,-0.45 2.45,-0.3 2.15,0.65c-0.25,0.7 -1.55,1.2 -2.85,1.1c-4.05,-0.3 -5.35,0.45 -3.85,2.25c0.85,1.05 2.6,1.45 5.35,1.25l4.1,-0.3l0.3,-8.75l0.3,-8.75l-4.35,0c-2.4,0 -4.9,0.55 -5.55,1.2zm6.6,4.45c0.4,2.85 -2.15,4.85 -3.75,2.95c-0.9,-1.1 -0.9,-2 -0.05,-3.6c1.35,-2.5 3.4,-2.15 3.8,0.65z"/>
  <path d="m133.55,106.55c-2.2,2.25 -2.05,9.7 0.3,11.8c4.5,4.1 10.15,0.75 10.15,-6.1c0,-4.85 -2,-7.25 -6,-7.25c-1.55,0 -3.55,0.7 -4.45,1.55zm6.25,5.8c0.25,3.05 0,3.65 -1.6,3.65c-2.3,0 -3.25,-2.65 -2.05,-5.85c1.25,-3.35 3.3,-2.1 3.65,2.2z"/>
  <path d="m167.65,106.85c-3.9,4.3 -0.75,13.15 4.7,13.15c2.4,0 5.65,-2.75 5.65,-4.85c0,-1.4 -2.65,-1.55 -3.5,-0.15c-0.95,1.55 -4.5,1.15 -4.5,-0.5c0,-1.1 1.1,-1.5 4,-1.5c3.15,0 4,-0.35 4,-1.8c0,-5.3 -6.85,-8.25 -10.35,-4.35z"/>
  <path d="m191,117.5c0,2.15 0.4,2.6 2.25,2.3c1.5,-0.2 2.25,-1 2.25,-2.3c0,-1.3 -0.75,-2.1 -2.25,-2.3c-1.85,-0.3 -2.25,0.15 -2.25,2.3z"/>
 </g></g></g>
</g>
<defs>
<linearGradient id="paint0_linear_0_1" x1="0" y1="198" x2="1584" y2="198" gradientUnits="userSpaceOnUse">
<stop stop-color="#3D052C"/>
<stop offset="1"/>
</linearGradient>
<linearGradient id="paint1_linear_0_1" x1="323" y1="-224" x2="323" y2="352" gradientUnits="userSpaceOnUse">
<stop stop-color="#28F6F2" stop-opacity="0.4"/>
<stop offset="1" stop-color="#17908E" stop-opacity="0.7"/>
</linearGradient>
<linearGradient id="paint2_linear_0_1" x1="148.5" y1="38" x2="148.5" y2="140" gradientUnits="userSpaceOnUse">
<stop stop-color="white"/>
<stop offset="1" stop-color="#999999"/>
</linearGradient>
<linearGradient id="paint3_linear_0_1" x1="38" y1="260" x2="26" y2="260" gradientUnits="userSpaceOnUse">
<stop stop-color="#D9D9D9"/>
<stop offset="1" stop-color="#737373"/>
</linearGradient>
<linearGradient id="paint4_linear_0_1" x1="38" y1="97.5" x2="26" y2="97.5" gradientUnits="userSpaceOnUse">
<stop stop-color="#D9D9D9"/>
<stop offset="1" stop-color="#737373"/>
</linearGradient>
<linearGradient id="paint5_linear_0_1" x1="27.5" y1="434.5" x2="148.5" y2="787" gradientUnits="userSpaceOnUse">
<stop stop-color="#2E21BC"/>
<stop offset="1" stop-color="#150F56"/>
</linearGradient>
<clipPath id="clip0_0_1">
<rect width="1584" height="396" fill="white"/>
</clipPath>
</defs>
</svg>
